<svg width="492" height="512" viewBox="0 0 492 512" fill="none" xmlns="http://www.w3.org/2000/svg">
<path d="M245.575 22C110.265 22 0.575012 131.69 0.575012 267C0.575012 327.342 22.403 382.577 58.575 425.272L137.666 487C170.225 503 206.847 512 245.575 512C281.85 512 316.28 504.108 347.252 489.96C319.765 475.64 300.942 446.894 300.942 413.816C300.942 366.497 339.439 328 386.758 328C421.02 328 450.644 348.189 464.391 377.29C481.133 344.14 490.574 306.675 490.574 267C490.575 131.69 380.885 22 245.575 22V22Z" fill="#FFBD86"/>
<path d="M300.942 413.816C300.942 366.497 339.439 328 386.758 328C403.598 328 419.307 332.895 432.574 341.308V26C432.574 20.477 428.097 16 422.574 16H325.574V44C325.574 46.206 323.78 48 321.574 48H169.574C167.368 48 165.574 46.206 165.574 44V16H68.574C63.051 16 58.574 20.477 58.574 26V425.272C80.3 450.914 107.199 472.027 137.666 487H341.995C317.391 471.895 300.942 444.743 300.942 413.816V413.816Z" fill="#22B27F"/>
<path d="M111 26C111 20.477 115.477 16 121 16H68.575C63.052 16 58.575 20.477 58.575 26V425.272C73.716 443.143 91.376 458.806 111 471.731V26Z" fill="#09A76D"/>
<path d="M300.942 413.816C300.942 366.497 339.439 328 386.758 328C392.163 328 397.444 328.526 402.574 329.486V39C402.574 37.343 401.231 36 399.574 36H325.574V44C325.574 46.206 323.78 48 321.574 48H169.574C167.368 48 165.574 46.206 165.574 44V36H91.574C89.917 36 88.574 37.343 88.574 39V444C88.574 445.657 89.917 447 91.574 447H307.621C303.324 436.786 300.942 425.575 300.942 413.816V413.816Z" fill="white"/>
<path d="M129 444V39C129 37.343 130.343 36 132 36H91.575C89.918 36 88.575 37.343 88.575 39V444C88.575 445.657 89.918 447 91.575 447H132C130.343 447 129 445.657 129 444Z" fill="#F8F6F6"/>
<path d="M296.075 48V56.1H275.382C269.82 56.1 265.002 59.71 263.394 65.082C261.057 72.884 253.729 78.333 245.575 78.333C237.421 78.333 230.093 72.884 227.756 65.083C226.148 59.71 221.33 56.1 215.768 56.1H195.075V48H180.075V58.6C180.075 65.493 185.682 71.1 192.575 71.1H213.951C218.698 84.277 231.45 93.333 245.575 93.333C259.7 93.333 272.451 84.277 277.199 71.1H298.575C305.468 71.1 311.075 65.493 311.075 58.6V48H296.075Z" fill="#9C9C9C"/>
<path d="M166.701 172.875C183.891 172.875 197.827 158.939 197.827 141.749C197.827 124.559 183.891 110.623 166.701 110.623C149.511 110.623 135.575 124.559 135.575 141.749C135.575 158.939 149.511 172.875 166.701 172.875Z" fill="#26A6FE"/>
<path d="M156 141.749C156 128.137 164.741 116.574 176.913 112.346C173.713 111.235 170.279 110.623 166.701 110.623C149.511 110.623 135.575 124.558 135.575 141.749C135.575 158.939 149.51 172.875 166.701 172.875C170.279 172.875 173.713 172.263 176.913 171.152C164.741 166.924 156 155.36 156 141.749Z" fill="#0593FC"/>
<path d="M164.596 158.566C162.677 158.566 160.757 157.834 159.293 156.37L146.424 143.502C143.495 140.573 143.495 135.824 146.424 132.896C149.353 129.966 154.102 129.967 157.03 132.895L164.595 140.46L176.37 128.685C179.299 125.757 184.048 125.757 186.976 128.685C189.905 131.615 189.905 136.363 186.976 139.292L169.898 156.37C168.435 157.834 166.516 158.566 164.596 158.566Z" fill="white"/>
<path d="M355.575 134.249H224.575C220.433 134.249 217.075 130.892 217.075 126.749C217.075 122.606 220.433 119.249 224.575 119.249H355.575C359.717 119.249 363.075 122.606 363.075 126.749C363.075 130.892 359.717 134.249 355.575 134.249Z" fill="#9C9C9C"/>
<path d="M312.575 164.249H224.575C220.433 164.249 217.075 160.892 217.075 156.749C217.075 152.606 220.433 149.249 224.575 149.249H312.575C316.717 149.249 320.075 152.606 320.075 156.749C320.075 160.892 316.717 164.249 312.575 164.249Z" fill="#9C9C9C"/>
<path d="M166.701 252.252C183.891 252.252 197.827 238.316 197.827 221.126C197.827 203.936 183.891 190 166.701 190C149.511 190 135.575 203.936 135.575 221.126C135.575 238.316 149.511 252.252 166.701 252.252Z" fill="#26A6FE"/>
<path d="M156 221.126C156 207.514 164.741 195.951 176.913 191.723C173.713 190.612 170.279 190 166.701 190C149.511 190 135.575 203.935 135.575 221.126C135.575 238.316 149.51 252.252 166.701 252.252C170.279 252.252 173.713 251.64 176.913 250.529C164.741 246.301 156 234.737 156 221.126Z" fill="#0593FC"/>
<path d="M164.596 237.943C162.677 237.943 160.758 237.211 159.293 235.747L146.424 222.879C143.495 219.95 143.495 215.201 146.424 212.273C149.353 209.343 154.102 209.344 157.03 212.272L164.595 219.837L176.37 208.063C179.299 205.134 184.048 205.135 186.976 208.064C189.905 210.993 189.905 215.742 186.976 218.67L169.898 235.747C168.435 237.211 166.515 237.943 164.596 237.943Z" fill="white"/>
<path d="M355.575 213.626H224.575C220.433 213.626 217.075 210.269 217.075 206.126C217.075 201.983 220.433 198.626 224.575 198.626H355.575C359.717 198.626 363.075 201.983 363.075 206.126C363.075 210.269 359.717 213.626 355.575 213.626Z" fill="#9C9C9C"/>
<path d="M312.575 243.626H224.575C220.433 243.626 217.075 240.269 217.075 236.126C217.075 231.983 220.433 228.626 224.575 228.626H312.575C316.717 228.626 320.075 231.983 320.075 236.126C320.075 240.269 316.717 243.626 312.575 243.626Z" fill="#9C9C9C"/>
<path d="M166.701 331.629C183.891 331.629 197.827 317.693 197.827 300.503C197.827 283.313 183.891 269.377 166.701 269.377C149.511 269.377 135.575 283.313 135.575 300.503C135.575 317.693 149.511 331.629 166.701 331.629Z" fill="#26A6FE"/>
<path d="M156 300.503C156 286.891 164.741 275.328 176.913 271.1C173.713 269.989 170.279 269.377 166.701 269.377C149.511 269.377 135.575 283.312 135.575 300.503C135.575 317.693 149.51 331.628 166.701 331.628C170.279 331.628 173.713 331.016 176.913 329.905C164.741 325.678 156 314.114 156 300.503V300.503Z" fill="#0593FC"/>
<path d="M164.596 317.32C162.677 317.32 160.758 316.588 159.293 315.124L146.424 302.256C143.495 299.327 143.495 294.578 146.424 291.65C149.353 288.72 154.102 288.721 157.03 291.649L164.595 299.214L176.37 287.44C179.299 284.512 184.048 284.511 186.976 287.441C189.905 290.37 189.905 295.119 186.976 298.047L169.898 315.124C168.435 316.588 166.515 317.32 164.596 317.32Z" fill="white"/>
<path d="M340.023 278.003H224.575C220.433 278.003 217.075 281.36 217.075 285.503C217.075 289.646 220.433 293.003 224.575 293.003H336.953L340.023 278.003Z" fill="#9C9C9C"/>
<path d="M342.231 271.041L340.405 271.142L330.612 318.998C330.283 320.605 332.189 321.705 333.416 320.617L369.964 288.208L369.17 286.595L342.231 271.041Z" fill="#FFE5C2"/>
<path d="M353.529 277.563L342.231 271.04L340.405 271.141L330.612 318.997C330.283 320.604 332.189 321.704 333.416 320.616L347.223 308.373L353.529 277.563Z" fill="#FED2A4"/>
<path d="M282.575 323.003H224.575C220.433 323.003 217.075 319.646 217.075 315.503C217.075 311.36 220.433 308.003 224.575 308.003H282.575C286.717 308.003 290.075 311.36 290.075 315.503C290.075 319.646 286.717 323.003 282.575 323.003Z" fill="#9C9C9C"/>
<path d="M166.701 411.006C183.891 411.006 197.827 397.07 197.827 379.88C197.827 362.69 183.891 348.754 166.701 348.754C149.511 348.754 135.575 362.69 135.575 379.88C135.575 397.07 149.511 411.006 166.701 411.006Z" fill="#D8ECFE"/>
<path d="M156 379.88C156 366.268 164.741 354.705 176.913 350.477C173.713 349.366 170.279 348.754 166.701 348.754C149.511 348.754 135.575 362.689 135.575 379.88C135.575 397.07 149.51 411.005 166.701 411.005C170.279 411.005 173.713 410.393 176.913 409.282C164.741 405.055 156 393.491 156 379.88V379.88Z" fill="#B3DAFE"/>
<path d="M322.193 357.38H224.575C220.433 357.38 217.075 360.737 217.075 364.88C217.075 369.023 220.433 372.38 224.575 372.38H311.64C314.621 366.998 318.169 361.977 322.193 357.38Z" fill="#9C9C9C"/>
<path d="M282.575 402.38H224.575C220.433 402.38 217.075 399.023 217.075 394.88C217.075 390.737 220.433 387.38 224.575 387.38H282.575C286.717 387.38 290.075 390.737 290.075 394.88C290.075 399.023 286.717 402.38 282.575 402.38Z" fill="#9C9C9C"/>
<path d="M321.575 49H169.575C166.814 49 164.575 46.761 164.575 44V5C164.575 2.239 166.814 0 169.575 0H321.575C324.336 0 326.575 2.239 326.575 5V44C326.575 46.761 324.337 49 321.575 49Z" fill="#0182FC"/>
<path d="M220 29C217.239 29 215 26.761 215 24V0H169.575C166.814 0 164.575 2.239 164.575 5V44C164.575 46.761 166.814 49 169.575 49H321.575C324.336 49 326.575 46.761 326.575 44V29H220Z" fill="#0172FB"/>
<path d="M487.157 68.159L472.377 59.626C468.296 57.27 463.077 58.668 460.721 62.749L441.095 96.742L441.999 98.249L468.602 113.608L470.654 113.808L490.28 79.815C492.637 75.734 491.238 70.515 487.157 68.159V68.159Z" fill="#9C9C9C"/>
<path d="M349.103 306.707L334.816 298.458L330.613 318.997C330.284 320.604 332.19 321.704 333.417 320.616L349.103 306.707Z" fill="#5A5A5A"/>
<path d="M441.085 96.7407L470.643 113.807L369.954 288.201L340.395 271.135L441.085 96.7407Z" fill="#FAC600"/>
<path d="M467.315 81.542C469.671 77.461 474.89 76.062 478.971 78.419L488.057 83.665L490.279 79.816C492.635 75.735 491.237 70.516 487.156 68.16L472.376 59.627C468.295 57.271 463.076 58.669 460.72 62.75L441.094 96.743L441.998 98.25L453.751 105.035L467.315 81.542Z" fill="#838383"/>
<path d="M447.689 115.535L464.166 125.047L470.654 113.808L441.095 96.742L340.406 271.142L353.489 278.695L447.689 115.535Z" fill="#E8B800"/>
<path d="M386.759 500.632C434.706 500.632 473.575 461.763 473.575 413.816C473.575 365.869 434.706 327 386.759 327C338.812 327 299.943 365.869 299.943 413.816C299.943 461.763 338.812 500.632 386.759 500.632Z" fill="#0182FC"/>
<path d="M339 413.816C339 372.584 367.745 338.066 406.288 329.206C400.011 327.763 393.474 327 386.759 327C338.812 327 299.943 365.869 299.943 413.816C299.943 461.763 338.812 500.632 386.759 500.632C393.474 500.632 400.011 499.869 406.288 498.426C367.745 489.566 339 455.049 339 413.816V413.816Z" fill="#0172FB"/>
<path d="M427.042 398.111H405.109C403.648 398.111 402.464 396.927 402.464 395.466V373.533C402.464 372.072 401.28 370.888 399.819 370.888H373.698C372.237 370.888 371.053 372.072 371.053 373.533V395.466C371.053 396.927 369.869 398.111 368.408 398.111H346.475C345.014 398.111 343.83 399.295 343.83 400.756V426.877C343.83 428.338 345.014 429.522 346.475 429.522H368.408C369.869 429.522 371.053 430.706 371.053 432.167V454.1C371.053 455.561 372.237 456.745 373.698 456.745H399.819C401.28 456.745 402.464 455.561 402.464 454.1V432.167C402.464 430.706 403.648 429.522 405.109 429.522H427.042C428.503 429.522 429.687 428.338 429.687 426.877V400.756C429.687 399.295 428.503 398.111 427.042 398.111Z" fill="white"/>
<path d="M390.012 446C388.551 446 387.367 444.816 387.367 443.355V421.422C387.367 419.961 386.183 418.777 384.722 418.777H362.789C361.328 418.777 360.144 417.593 360.144 416.132V398.11H346.475C345.014 398.11 343.83 399.294 343.83 400.755V426.876C343.83 428.337 345.014 429.521 346.475 429.521H368.408C369.869 429.521 371.053 430.705 371.053 432.166V454.099C371.053 455.56 372.237 456.744 373.698 456.744H399.819C401.28 456.744 402.464 455.56 402.464 454.099V446H390.012Z" fill="#F8F6F6"/>
</svg>
