<svg width="65" height="65" viewBox="0 0 65 65" fill="none" xmlns="http://www.w3.org/2000/svg">
<rect width="65" height="65" rx="15" fill="#9CCC4E"/>
<path d="M39.5333 53C38.9561 53 38.4136 52.7303 38.0912 52.2769L35.1393 48.1252H31.7333C30.7765 48.1252 30 47.3972 30 46.5003C30 45.6033 30.7765 44.8753 31.7333 44.8753H36.0667C36.6456 44.8753 37.1864 45.1467 37.5088 45.5984L39.3184 48.1431L43.182 40.8975C43.4663 40.3678 44.0331 40.0233 44.6657 40.0005C45.3383 39.9859 45.8929 40.28 46.2188 40.787L50.9144 48.1252H54.2667C55.2235 48.1252 56 48.8532 56 49.7501C56 50.6471 55.2235 51.3751 54.2667 51.3751H49.9333C49.3249 51.3751 48.7599 51.0761 48.4479 50.587L44.872 45.0004L41.0847 52.103C40.8073 52.6214 40.2579 52.9626 39.6408 52.9984C39.6061 53 39.5697 53 39.5333 53V53Z" fill="white"/>
<path d="M30.5 29C35.1944 29 39 25.1944 39 20.5C39 15.8056 35.1944 12 30.5 12C25.8056 12 22 15.8056 22 20.5C22 25.1944 25.8056 29 30.5 29Z" fill="white"/>
<path d="M26.9194 46.3333C26.9194 43.5767 29.2114 41.3333 32.0278 41.3333H36.2847C37.1685 41.3333 38.0198 41.555 38.7674 41.9617L40.2301 39.0967C40.9742 37.645 42.3909 36.6933 44 36.44C42.4505 34.365 39.9644 33 37.1361 33H23.5139C18.8125 33 15 36.7317 15 41.3333V46.75C15 47.44 15.5721 48 16.2771 48H27.2328C27.042 47.4767 26.9194 46.92 26.9194 46.3333Z" fill="white"/>
</svg>
