<svg width="65" height="65" viewBox="0 0 65 65" fill="none" xmlns="http://www.w3.org/2000/svg">
<rect width="65" height="65" rx="15" fill="#1976B0"/>
<path d="M47.1771 53H46.3229C44.6744 53 43.3333 51.659 43.3333 50.0104V46.1667H39.4896C37.841 46.1667 36.5 44.8256 36.5 43.1771V42.3229C36.5 40.6744 37.841 39.3333 39.4896 39.3333H43.3333V35.4896C43.3333 33.841 44.6744 32.5 46.3229 32.5H47.1771C48.8256 32.5 50.1667 33.841 50.1667 35.4896V39.3333H54.0104C55.659 39.3333 57 40.6744 57 42.3229V43.1771C57 44.8256 55.659 46.1667 54.0104 46.1667H50.1667V50.0104C50.1667 51.659 48.8256 53 47.1771 53Z" fill="white"/>
<path d="M31.375 29.0833C36.0925 29.0833 39.9167 25.2591 39.9167 20.5417C39.9167 15.8242 36.0925 12 31.375 12C26.6576 12 22.8334 15.8242 22.8334 20.5417C22.8334 25.2591 26.6576 29.0833 31.375 29.0833Z" fill="white"/>
<path d="M33.0833 43.1771V42.3229C33.0833 38.7901 35.9567 35.9167 39.4896 35.9167H39.9167V35.4896C39.9167 34.5466 40.1336 33.6582 40.5009 32.8502C39.7663 32.6452 39.0078 32.5 38.2083 32.5H24.5417C19.825 32.5 16 36.325 16 41.0417V46.5938C16 47.301 16.574 47.875 17.2812 47.875H35.1675C33.8948 46.7031 33.0833 45.0392 33.0833 43.1771Z" fill="white"/>
</svg>
