<svg width="65" height="65" viewBox="0 0 65 65" fill="none" xmlns="http://www.w3.org/2000/svg">
<rect width="65" height="65" rx="15" fill="#8AB349"/>
<path d="M52.9488 50.8765L51.975 46.985C51.4266 44.7949 49.8208 43.0626 47.6803 42.3485L40.6078 39.9979C39.8595 39.6852 39.3624 38.4296 39.2565 36.6478C40.2729 35.6741 41.8275 33.8564 41.8275 31.8542C41.8275 31.7825 41.8309 31.7261 41.8361 31.6817C42.1401 31.4921 42.3793 31.2085 42.516 30.8668C42.6714 30.4773 43.447 28.4615 43.447 26.9923C43.447 26.8027 43.4146 26.6131 43.3531 26.4337C43.2044 26.0066 42.9396 25.5471 42.5587 25.1798V21.3224C42.5587 18.2696 41.491 17.0003 40.3515 16.2879C39.6545 14.2806 36.9229 12 32.5 12C26.8061 12 22.5216 17.6563 22.5216 21.3224C22.5216 22.771 22.4601 23.9293 22.414 24.8005C22.4072 24.9287 22.4003 25.0517 22.3952 25.1678C21.9989 25.559 21.7273 26.0698 21.6008 26.5789C21.5667 26.7139 21.5513 26.8522 21.5513 26.9923C21.5513 28.4615 22.3269 30.4773 22.4823 30.8668C22.619 31.2085 22.8599 31.4904 23.1623 31.6817C23.1674 31.7244 23.1708 31.7825 23.1708 31.8542C23.1708 33.8564 24.7254 35.6741 25.7418 36.6478C25.6359 38.4296 25.1508 39.6801 24.5067 39.9535L17.318 42.3485C15.1775 43.0609 13.5734 44.7949 13.025 46.985L12.0512 50.8765C11.9231 51.3873 12.0376 51.9272 12.3622 52.3423C12.6867 52.7574 13.1822 53 13.7083 53H51.2917C51.8178 53 52.315 52.7574 52.6378 52.3423C52.9607 51.9272 53.0769 51.3873 52.9488 50.8765V50.8765ZM32.5 15.4167C35.8142 15.4167 37.0151 17.0327 37.1159 17.2719C37.1159 18.4524 38.0811 18.941 38.3989 19.1015C38.5526 19.1801 38.7628 19.2963 38.9199 19.6875H36.4087C35.7475 18.1825 34.2476 17.125 32.5 17.125C30.7524 17.125 29.2525 18.1825 28.5913 19.6875H26.4064C27.3699 17.7144 29.7462 15.4167 32.5 15.4167V15.4167ZM25.4736 29.109C25.3079 28.6323 25.1354 28.0583 25.0431 27.5868C25.4873 27.2776 25.7777 26.7651 25.7777 26.1826C25.7777 25.8819 25.7999 25.4822 25.8255 24.9816C25.8529 24.4589 25.8853 23.8251 25.9075 23.1042H28.5913C29.2525 24.6092 30.7524 25.6667 32.5 25.6667C34.2476 25.6667 35.7475 24.6092 36.4087 23.1042H39.1454V26.1826C39.1454 26.7942 39.4666 27.3306 39.95 27.633C39.8544 28.0942 39.6904 28.6443 39.5281 29.109C38.9421 29.6112 38.4143 30.4807 38.4143 31.8525C38.4143 32.3838 37.6609 33.5797 36.4428 34.5859C36.0499 34.9105 35.8227 35.3939 35.8227 35.903C35.8227 38.0845 36.2549 39.8544 37.0732 41.1578L32.5 48.1637L27.9405 41.1698C28.7451 39.8732 29.1807 38.0948 29.1807 35.8996C29.1807 35.3905 28.9535 34.907 28.5606 34.5825C27.3425 33.5762 26.5892 32.3804 26.5892 31.8491C26.5875 30.479 26.0579 29.6112 25.4736 29.109V29.109ZM16.3375 47.8152C16.6005 46.7629 17.371 45.9309 18.3994 45.5892L25.2481 43.3018L29.3464 49.5833H15.895L16.3375 47.8152ZM35.6536 49.5833L39.7485 43.3052L46.6006 45.5892C47.629 45.9309 48.3995 46.7646 48.6626 47.8152L49.105 49.5833H35.6536Z" fill="white"/>
</svg>
