<svg width="65" height="65" viewBox="0 0 65 65" fill="none" xmlns="http://www.w3.org/2000/svg">
<rect width="65" height="65" rx="15" fill="#A7E83F"/>
<path d="M26.8125 34.2084C20.6899 34.2084 15.7084 29.2269 15.7084 23.1042V17.125C15.7084 15.2407 17.2407 13.7083 19.125 13.7083H22.5417C23.4847 13.7083 24.25 14.4737 24.25 15.4167C24.25 16.3597 23.4847 17.125 22.5417 17.125H19.125V23.1042C19.125 27.3426 22.5742 30.7917 26.8125 30.7917C31.0509 30.7917 34.5001 27.3426 34.5001 23.1042V17.125H31.0834C30.1404 17.125 29.375 16.3597 29.375 15.4167C29.375 14.4737 30.1404 13.7083 31.0834 13.7083H34.5001C36.3843 13.7083 37.9167 15.2407 37.9167 17.125V23.1042C37.9167 29.2269 32.9352 34.2084 26.8125 34.2084Z" fill="white"/>
<path d="M22.5417 18.8333C21.5987 18.8333 20.8334 18.068 20.8334 17.125V13.7083C20.8334 12.7653 21.5987 12 22.5417 12C23.4847 12 24.25 12.7653 24.25 13.7083V17.125C24.25 18.068 23.4847 18.8333 22.5417 18.8333Z" fill="white"/>
<path d="M31.0833 18.8333C30.1403 18.8333 29.375 18.068 29.375 17.125V13.7083C29.375 12.7653 30.1403 12 31.0833 12C32.0263 12 32.7917 12.7653 32.7917 13.7083V17.125C32.7917 18.068 32.0263 18.8333 31.0833 18.8333Z" fill="white"/>
<path d="M37.0625 53C30.4683 53 25.1041 47.6358 25.1041 41.0417V32.5H28.5208V41.0417C28.5208 45.7515 32.3526 49.5833 37.0625 49.5833C41.7723 49.5833 45.6041 45.7515 45.6041 41.0417V37.625H49.0208V41.0417C49.0208 47.6358 43.6566 53 37.0625 53Z" fill="white"/>
<path d="M47.3125 39.3333C44.9584 39.3333 43.0416 37.4166 43.0416 35.0625C43.0416 32.7084 44.9584 30.7917 47.3125 30.7917C49.6666 30.7917 51.5833 32.7084 51.5833 35.0625C51.5833 37.4166 49.6666 39.3333 47.3125 39.3333Z" fill="white"/>
</svg>
