<svg width="14" height="14" viewBox="0 0 14 14" fill="none" xmlns="http://www.w3.org/2000/svg">
<path d="M11.0833 0.583344H2.91659C2.77681 0.584953 2.64225 0.636705 2.53742 0.729177C2.95342 0.875536 3.31942 1.13679 3.59302 1.48265C3.86661 1.82851 4.03659 2.24483 4.08326 2.68335C4.09217 2.76087 4.09217 2.83916 4.08326 2.91668V12.8334C4.08298 12.9449 4.11471 13.0542 4.17467 13.1483C4.23464 13.2424 4.32033 13.3173 4.42159 13.3642C4.52308 13.4109 4.63586 13.4275 4.74651 13.412C4.85716 13.3965 4.96102 13.3495 5.04576 13.2767L6.70826 11.8534L8.37076 13.2767C8.47642 13.3671 8.61089 13.4167 8.74993 13.4167C8.88897 13.4167 9.02343 13.3671 9.12909 13.2767L10.7916 11.8534L12.4541 13.2767C12.5598 13.3671 12.6942 13.4167 12.8333 13.4167C12.9177 13.4161 13.001 13.3982 13.0783 13.3642C13.1795 13.3173 13.2652 13.2424 13.3252 13.1483C13.3851 13.0542 13.4169 12.9449 13.4166 12.8334V2.91668C13.4166 2.29784 13.1708 1.70435 12.7332 1.26676C12.2956 0.829176 11.7021 0.583344 11.0833 0.583344V0.583344ZM10.4999 8.75002H6.99993C6.84522 8.75002 6.69684 8.68856 6.58745 8.57916C6.47805 8.46977 6.41659 8.32139 6.41659 8.16669C6.41659 8.01198 6.47805 7.8636 6.58745 7.75421C6.69684 7.64481 6.84522 7.58335 6.99993 7.58335H10.4999C10.6546 7.58335 10.803 7.64481 10.9124 7.75421C11.0218 7.8636 11.0833 8.01198 11.0833 8.16669C11.0833 8.32139 11.0218 8.46977 10.9124 8.57916C10.803 8.68856 10.6546 8.75002 10.4999 8.75002ZM10.4999 6.41668H6.99993C6.84522 6.41668 6.69684 6.35522 6.58745 6.24583C6.47805 6.13643 6.41659 5.98806 6.41659 5.83335C6.41659 5.67864 6.47805 5.53027 6.58745 5.42087C6.69684 5.31147 6.84522 5.25002 6.99993 5.25002H10.4999C10.6546 5.25002 10.803 5.31147 10.9124 5.42087C11.0218 5.53027 11.0833 5.67864 11.0833 5.83335C11.0833 5.98806 11.0218 6.13643 10.9124 6.24583C10.803 6.35522 10.6546 6.41668 10.4999 6.41668ZM10.4999 4.08335H6.99993C6.84522 4.08335 6.69684 4.02189 6.58745 3.91249C6.47805 3.8031 6.41659 3.65472 6.41659 3.50001C6.41659 3.3453 6.47805 3.19693 6.58745 3.08753C6.69684 2.97814 6.84522 2.91668 6.99993 2.91668H10.4999C10.6546 2.91668 10.803 2.97814 10.9124 3.08753C11.0218 3.19693 11.0833 3.3453 11.0833 3.50001C11.0833 3.65472 11.0218 3.8031 10.9124 3.91249C10.803 4.02189 10.6546 4.08335 10.4999 4.08335ZM2.91659 2.91668V7.58335H1.16659C1.01188 7.58335 0.863503 7.52189 0.754106 7.4125C0.64471 7.3031 0.583252 7.15473 0.583252 7.00002V2.91668C0.583252 2.83501 0.583252 2.75918 0.583252 2.68335C0.614194 2.37393 0.766785 2.08947 1.00746 1.89256C1.24813 1.69564 1.55717 1.6024 1.86659 1.63334C2.17601 1.66429 2.46046 1.81688 2.65737 2.05755C2.85429 2.29822 2.94753 2.60726 2.91659 2.91668V2.91668Z" fill="#C4C4C4"/>
</svg>
