<svg width="470" height="470" viewBox="0 0 470 470" fill="none" xmlns="http://www.w3.org/2000/svg">
<path d="M160.333 0.333252H53.6666C24.2114 0.333252 0.333252 24.2114 0.333252 53.6666V96.3333C0.333252 125.788 24.2114 149.667 53.6666 149.667H160.333C189.788 149.667 213.667 125.788 213.667 96.3333V53.6666C213.667 24.2114 189.788 0.333252 160.333 0.333252Z" fill="black"/>
<path d="M416.333 320.333H309.667C280.211 320.333 256.333 344.211 256.333 373.667V416.333C256.333 445.788 280.211 469.667 309.667 469.667H416.333C445.788 469.667 469.667 445.788 469.667 416.333V373.667C469.667 344.211 445.788 320.333 416.333 320.333Z" fill="black"/>
<path d="M160.333 171H53.6666C24.2114 171 0.333252 194.878 0.333252 224.333V416.333C0.333252 445.789 24.2114 469.667 53.6666 469.667H160.333C189.788 469.667 213.667 445.789 213.667 416.333V224.333C213.667 194.878 189.788 171 160.333 171Z" fill="black"/>
<path d="M416.333 0.333252H309.667C280.211 0.333252 256.333 24.2114 256.333 53.6666V245.667C256.333 275.122 280.211 299 309.667 299H416.333C445.788 299 469.667 275.122 469.667 245.667V53.6666C469.667 24.2114 445.788 0.333252 416.333 0.333252Z" fill="black"/>
</svg>
