<svg width="512" height="434" viewBox="0 0 512 434" fill="none" xmlns="http://www.w3.org/2000/svg">
<path d="M13.5 158.835H158.5V418.835H13.5V158.835Z" fill="#00B3FF"/>
<path d="M0 143.835H158.5V173.835H0V143.835Z" fill="#5F7883"/>
<path d="M143.5 87.005H498.5V418.835H143.5V87.005Z" fill="#F0F7FF"/>
<path d="M321 87.005H498.5V418.835H321V87.005Z" fill="#D7E9FC"/>
<path d="M130 72.005H512V102.005H130V72.005Z" fill="#5F7883"/>
<path d="M321 72.005H512V102.005H321V72.005Z" fill="#4B5055"/>
<path d="M78.5 208.835H108.5V238.835H78.5V208.835Z" fill="#F0F7FF"/>
<path d="M78.5 273.835H108.5V303.835H78.5V273.835Z" fill="#F0F7FF"/>
<path d="M78.5 338.835H108.5V368.835H78.5V338.835Z" fill="#F0F7FF"/>
<path d="M338.5 273.835H368.5V303.835H338.5V273.835Z" fill="#3A80E8"/>
<path d="M403.5 273.835H433.5V303.835H403.5V273.835Z" fill="#3A80E8"/>
<path d="M273.5 273.835H303.5V303.835H273.5V273.835Z" fill="#00B3FF"/>
<path d="M208.5 273.835H238.5V303.835H208.5V273.835Z" fill="#00B3FF"/>
<path d="M403.5 208.835H433.5V238.835H403.5V208.835Z" fill="#3A80E8"/>
<path d="M338.5 208.835H368.5V238.835H338.5V208.835Z" fill="#3A80E8"/>
<path d="M227.3 0.164978V173.835H414.7V0.164978H227.3Z" fill="#FF5F7B"/>
<path d="M321 0.164978H414.7V173.835H321V0.164978Z" fill="#EA344A"/>
<path d="M365.07 72.005V102.005H336V131.075H306V102.005H276.93V72.005H306V42.935H336V72.005H365.07Z" fill="#F0F7FF"/>
<path d="M365.07 72.005V102.005H336V131.075H321V42.935H336V72.005H365.07Z" fill="#D7E9FC"/>
<path d="M273.5 208.835H303.5V238.835H273.5V208.835Z" fill="#00B3FF"/>
<path d="M208.5 208.835H238.5V238.835H208.5V208.835Z" fill="#00B3FF"/>
<path d="M257.25 338.835H384.75V418.835H257.25V338.835Z" fill="#5FD6FF"/>
<path d="M321 338.835H384.75V418.835H321V338.835Z" fill="#00B3FF"/>
<path d="M0 403.835H512V433.835H0V403.835Z" fill="#BDE760"/>
<path d="M256 403.835H512V433.835H256V403.835Z" fill="#00D880"/>
</svg>
