<svg width="512" height="512" viewBox="0 0 512 512" fill="none" xmlns="http://www.w3.org/2000/svg">
<path d="M512 255.994C512 323.179 486.119 384.324 443.771 430.003C422.264 453.209 396.505 472.417 367.725 486.396C336.636 501.507 302.017 510.501 265.443 511.822C262.312 511.944 259.17 512 256.005 512C252.841 512 249.698 511.944 246.567 511.822C209.993 510.501 175.374 501.507 144.285 486.396C115.506 472.417 89.746 453.209 68.228 430.003C25.893 384.325 0 323.18 0 255.994C0 114.618 114.618 0 256.006 0C397.394 0 512 114.618 512 255.994Z" fill="#27536B"/>
<path d="M83.953 176.329L120.95 172.239L83.953 168.15L79.864 131.153L75.774 168.15L38.778 172.239L75.774 176.329L79.864 213.325L83.953 176.329Z" fill="white"/>
<path d="M393.377 211.882H118.623C104.046 211.882 92.229 223.699 92.229 238.276V358.696C92.229 373.273 104.046 385.09 118.623 385.09H393.377C407.954 385.09 419.771 373.273 419.771 358.696V238.276C419.772 223.699 407.954 211.882 393.377 211.882Z" fill="#CCCCCC"/>
<path d="M439.999 340.623L463.645 338.009L439.999 335.395L437.386 311.75L434.772 335.395L411.127 338.009L434.772 340.623L437.386 364.268L439.999 340.623Z" fill="white"/>
<path d="M443.778 389.028V419.406H408.348V381.8H443.423C443.656 384.176 443.778 386.585 443.778 389.028Z" fill="#F77759"/>
<path d="M164.855 163.379C185.784 135.932 218.827 118.222 256.001 118.222C293.185 118.222 326.228 135.932 347.158 163.379C361.859 182.643 370.586 206.704 370.586 232.807C370.586 234.928 370.53 237.037 370.408 239.136C368.754 269.614 355.197 296.906 334.289 316.47C313.815 335.656 286.279 347.392 256.001 347.392C225.734 347.392 198.209 335.656 177.724 316.481C156.828 296.917 143.26 269.615 141.594 239.136C141.483 237.038 141.427 234.928 141.427 232.807C141.428 206.703 150.155 182.643 164.855 163.379ZM344.771 237.403C344.771 189.704 305.033 168.697 256.001 168.697C206.981 168.697 167.231 189.704 167.231 237.403C167.231 285.113 206.98 323.786 256.001 323.786C305.033 323.786 344.771 285.114 344.771 237.403Z" fill="#F2F2F2"/>
<path d="M295.972 337.398C265.705 337.398 238.18 325.662 217.695 306.487C196.799 286.923 183.231 259.621 181.565 229.142C181.454 227.044 181.398 224.934 181.398 222.813C181.398 196.709 190.125 172.649 204.826 153.385C216.244 138.411 231.274 126.345 248.607 118.462C214.466 120.637 184.385 137.765 164.855 163.378C150.154 182.642 141.427 206.703 141.427 232.806C141.427 234.927 141.483 237.036 141.594 239.135C143.259 269.613 156.828 296.916 177.724 316.48C198.209 335.655 225.734 347.391 256.001 347.391C272.911 347.391 288.964 343.727 303.41 337.153C300.951 337.311 298.473 337.398 295.972 337.398Z" fill="#E6E6E6"/>
<path d="M256.001 328.227C204.604 328.227 162.79 287.484 162.79 237.403C162.79 197.476 189.607 171.244 236.367 165.433C242.639 164.651 249.246 164.255 256.001 164.255C282.551 164.255 305.136 170.225 321.315 181.52C339.566 194.261 349.212 213.584 349.212 237.402C349.212 272.565 328.08 304.881 295.377 319.734C283.013 325.369 269.763 328.227 256.001 328.227ZM256.001 173.138C249.611 173.138 243.374 173.511 237.463 174.247C180.22 181.361 171.672 216.87 171.672 237.403C171.672 282.586 209.502 319.344 256 319.344C268.483 319.344 280.494 316.755 291.698 311.65C321.241 298.233 340.329 269.089 340.329 237.403C340.329 216.319 332.22 199.968 316.23 188.804C301.55 178.555 280.722 173.138 256.001 173.138Z" fill="#CCCCCC"/>
<path d="M344.771 237.403C344.771 272.056 323.808 301.946 293.541 315.691C282.138 320.887 269.414 323.785 256.001 323.785C206.981 323.785 167.231 285.113 167.231 237.402C167.231 196.076 197.065 174.791 236.914 169.839C243.065 169.073 249.449 168.695 256 168.695C305.033 168.697 344.771 189.704 344.771 237.403Z" fill="#46B5D3"/>
<path d="M344.771 237.403C344.771 272.056 323.808 301.946 293.541 315.691C291.054 315.913 288.522 316.013 285.98 316.013C236.96 316.013 197.21 277.341 197.21 229.63C197.21 199.585 212.988 180.121 236.915 169.84C243.066 169.074 249.45 168.696 256.001 168.696C305.033 168.697 344.771 189.704 344.771 237.403Z" fill="#51BEE5"/>
<path d="M367.732 316.48V316.869C342.717 351.5 302.001 374.039 256.012 374.039C210.034 374.039 169.307 351.522 144.292 316.902V316.48H177.724C198.209 335.655 225.734 347.391 256.001 347.391C286.279 347.391 313.815 335.655 334.289 316.469L334.3 316.48H367.732Z" fill="#CCCCCC"/>
<path d="M144.288 316.902V486.392C115.509 472.413 89.749 453.205 68.231 429.999V389.028C68.231 360.226 85.008 335.344 109.324 323.641C118.839 319.044 129.498 316.479 140.768 316.479H143.977C144.077 316.624 144.177 316.769 144.288 316.902Z" fill="#E6E6E6"/>
<path d="M443.773 419.406V429.998C422.266 453.204 396.507 472.412 367.727 486.391V316.869C367.827 316.747 367.927 316.614 368.016 316.48H371.225C382.495 316.48 393.154 319.045 402.669 323.642C424.931 334.357 440.875 356.108 443.418 381.8H408.343V419.406H443.773Z" fill="#E6E6E6"/>
<path d="M256.008 374.039V511.996C215.948 511.996 178.042 502.791 144.288 486.392V316.902C169.303 351.522 210.03 374.039 256.008 374.039Z" fill="#F2F2F2"/>
<path d="M256.008 374.039V511.996C296.068 511.996 333.974 502.791 367.728 486.392V316.869C342.712 351.499 301.997 374.039 256.008 374.039Z" fill="#F2F2F2"/>
<path d="M314.108 259.57C323.306 259.57 330.763 247.142 330.763 231.812C330.763 216.482 323.306 204.054 314.108 204.054C304.91 204.054 297.453 216.482 297.453 231.812C297.453 247.142 304.91 259.57 314.108 259.57Z" fill="#73D5EF"/>
<path d="M458.895 210.223L495.89 206.132L458.895 202.043L454.804 165.046L450.715 202.043L413.718 206.132L450.715 210.223L454.804 247.219L458.895 210.223Z" fill="white"/>
<path d="M441.588 287.325L448.915 294.652L456.242 287.325L448.915 279.998L441.588 287.325Z" fill="white"/>
<path d="M41.8018 325.741L49.1287 333.068L56.4557 325.741L49.1287 318.414L41.8018 325.741Z" fill="white"/>
<path d="M46.6009 250.74L53.9279 258.067L61.2549 250.74L53.9279 243.413L46.6009 250.74Z" fill="white"/>
<path d="M314.191 42.3132L321.518 49.6402L328.845 42.3132L321.518 34.9863L314.191 42.3132Z" fill="white"/>
<path d="M199.097 60.1593L206.424 67.4863L213.75 60.1593L206.424 52.8323L199.097 60.1593Z" fill="white"/>
<path d="M265.443 365.105V511.822C262.312 511.944 259.17 512 256.005 512C252.841 512 249.698 511.945 246.567 511.822V365.105H265.443Z" fill="#CCCCCC"/>
<path d="M309.366 403.966H202.647C194.098 403.966 187.167 410.897 187.167 419.446V465.098C187.167 473.647 194.098 480.578 202.647 480.578H309.366C317.915 480.578 324.846 473.647 324.846 465.098V419.446C324.846 410.897 317.916 403.966 309.366 403.966Z" fill="#CCCCCC"/>
<path d="M202.647 466.144C202.07 466.144 201.601 465.675 201.601 465.098V419.446C201.601 418.869 202.07 418.4 202.647 418.4H309.366C309.943 418.4 310.412 418.869 310.412 419.446V465.098C310.412 465.675 309.942 466.144 309.366 466.144H202.647Z" fill="#B3B3B3"/>
<path d="M221.408 455.407C228.153 455.407 233.621 449.939 233.621 443.194C233.621 436.449 228.153 430.981 221.408 430.981C214.663 430.981 209.195 436.449 209.195 443.194C209.195 449.939 214.663 455.407 221.408 455.407Z" fill="#F77759"/>
<path d="M290.614 455.407C297.359 455.407 302.827 449.939 302.827 443.194C302.827 436.449 297.359 430.981 290.614 430.981C283.869 430.981 278.401 436.449 278.401 443.194C278.401 449.939 283.869 455.407 290.614 455.407Z" fill="#F77759"/>
<path d="M256.006 455.407C262.751 455.407 268.219 449.939 268.219 443.194C268.219 436.449 262.751 430.981 256.006 430.981C249.261 430.981 243.793 436.449 243.793 443.194C243.793 449.939 249.261 455.407 256.006 455.407Z" fill="#F77759"/>
<path d="M68.231 389.028V419.406H103.661V381.8H68.586C68.353 384.176 68.231 386.585 68.231 389.028Z" fill="#F77759"/>
</svg>
